PathFileType	4	(X/Y/Z)	..\data\2014051\dynamic\2014051_C4_04.trc
DataRate	CameraRate	NumFrames	NumMarkers	Units	OrigDataRate	OrigDataStartFrame	OrigNumFrames
100.000000	100.000000	4	44	mm	100.000000	24	199
Frame#	Time	L_IAS			L_IPS			R_IPS			R_IAS			L_FTC			L_FLE			L_FME			L_FAX			L_TTC			L_FAL			L_TAM			L_FCC			L_FM1			L_FM2			L_FM5			R_FTC			R_FLE			R_FME			R_FAX			R_TTC			R_FAL			R_TAM			R_FCC			R_FM1			R_FM2			R_FM5			CV7			TV10			SXS			SJN			L_SAE			L_HLE			L_HME			L_RSP			L_UHE			L_HM2			L_HM5			R_SAE			R_HLE			R_HME			R_RSP			R_UHE			R_HM2			R_HM5			
		X1	Y1	Z1	X2	Y2	Z2	X3	Y3	Z3	X4	Y4	Z4	X5	Y5	Z5	X6	Y6	Z6	X7	Y7	Z7	X8	Y8	Z8	X9	Y9	Z9	X10	Y10	Z10	X11	Y11	Z11	X12	Y12	Z12	X13	Y13	Z13	X14	Y14	Z14	X15	Y15	Z15	X16	Y16	Z16	X17	Y17	Z17	X18	Y18	Z18	X19	Y19	Z19	X20	Y20	Z20	X21	Y21	Z21	X22	Y22	Z22	X23	Y23	Z23	X24	Y24	Z24	X25	Y25	Z25	X26	Y26	Z26	X27	Y27	Z27	X28	Y28	Z28	X29	Y29	Z29	X30	Y30	Z30	X31	Y31	Z31	X32	Y32	Z32	X33	Y33	Z33	X34	Y34	Z34	X35	Y35	Z35	X36	Y36	Z36	X37	Y37	Z37	X38	Y38	Z38	X39	Y39	Z39	X40	Y40	Z40	X41	Y41	Z41	X42	Y42	Z42	X43	Y43	Z43	X44	Y44	Z44	

25	0.24	-959.3645629882815	1082.210327148438	129.0568237304687	-1157.3173828125	1092.422973632813	251.7048034667968	-1151.858154296875	1097.175903320313	319.2975769042968	-934.5275878906252	1101.122192382813	396.8981018066406	-1033.85205078125	955.9941406250002	78.48541259765614	-1036.789672851563	530.4387817382814	93.82250976562489	-1008.19140625	523.2981567382814	223.8710021972656	-1086.142944335938	482.227264404297	91.89072418212879	-1049.092651367188	429.115692138672	147.6955261230468	-1403.455688476563	220.7884826660157	133.0505981445311	-1370.149780273438	214.4124298095704	223.6720733642577	-1462.57080078125	232.9352416992188	191.122589111328	-1356.0703125	54.63048934936525	223.2205352783202	-1348.865600585938	60.47463226318361	166.5629119873045	-1379.73876953125	79.78346252441408	121.1435775756835	-992.2088623046878	973.5689697265627	465.1789245605469	-907.8503417968752	545.3678588867189	389.0208129882812	-919.3623657226565	553.1526489257814	259.1496276855468	-927.531677246094	476.159393310547	394.7406311035156	-866.292175292969	474.2136840820314	321.1346740722656	-910.675964355469	64.29210662841798	337.7697448730468	-874.777282714844	89.18385314941408	247.7765960693359	-956.2552490234377	21.98973083496094	274.0799865722656	-730.3671264648439	22.88204002380371	270.8087158203124	-739.8727416992189	39.66628646850587	327.3400878906249	-785.8858642578127	27.38182640075684	373.1925659179687	-1130.185180664063	1621.977294921875	263.4919433593749	-1156.572143554688	1258.14453125	270.9940795898437	-941.1062011718752	1353.680908203125	257.8326721191406	-1001.064331054688	1527.7822265625	256.3963317871093	-1047.9970703125	1556.440307617188	74.34915924072254	-1062.599609375	1169.520874023438	-20.94719886779799	-1100.217529296875	1154.460083007813	61.53860092163074	-873.668884277344	969.000427246094	75.57757568359365	-908.574401855469	939.6450805664065	4.224846839904675	-809.0281372070315	876.5418090820315	94.55693817138663	-883.332214355469	848.201110839844	15.9517183303832	-1028.391967773438	1535.407348632813	460.3179626464844	-1083.259033203125	1172.813354492188	553.9282836914062	-1127.262451171875	1153.93115234375	467.1264038085938	-983.6342773437503	905.8837890625002	493.6921997070312	-1027.742309570313	896.105163574219	563.59912109375	-938.5329589843753	796.4094238281252	504.8052978515625	-1040.299072265625	798.3072509765627	555.0318603515625	
26	0.25	-949.2095947265627	1083.70361328125	130.1132049560546	-1147.344360351563	1093.538818359375	252.7433319091796	-1141.965087890625	1098.481079101563	320.4473876953124	-924.4094238281252	1101.703735351563	397.9613952636719	-1022.044372558594	957.1807250976565	79.43730163574207	-1014.231506347656	531.8876953125001	94.04885864257801	-986.5795898437502	525.1843261718751	224.5694732666015	-1062.947509765625	483.7364501953126	91.86797332763661	-1026.794677734375	430.7648925781251	148.4025726318359	-1382.660766601563	224.9503631591797	131.8831329345702	-1349.451904296875	218.0077667236329	222.6737365722655	-1442.119506835938	236.6096343994141	189.9029235839842	-1334.970703125	58.17250823974611	220.4174804687499	-1327.924072265625	64.43230438232423	164.0220489501952	-1358.81005859375	84.3386917114258	118.8914947509764	-982.7792968750003	974.328796386719	466.0887451171875	-903.2717285156252	545.3161621093751	389.4026794433594	-914.672546386719	553.2293701171876	259.6477966308593	-923.792663574219	476.1956481933595	394.920166015625	-862.2691650390627	473.8283996582032	321.4312133789062	-910.459167480469	64.37802886962892	337.4113464355468	-874.5030517578127	88.93033599853517	247.3045043945312	-956.2827758789065	21.86327171325684	273.9335021972656	-730.3012084960939	22.4244613647461	270.5495605468749	-739.5323486328126	39.52428436279298	327.2304382324218	-785.7354736328127	27.45259857177735	373.1213378906249	-1119.38525390625	1623.426025390625	264.4947204589843	-1146.050903320313	1259.783569335938	272.5653686523437	-930.7537841796877	1354.780883789063	258.5428466796874	-990.3656005859377	1529.058837890625	257.0840454101562	-1037.91650390625	1557.4052734375	75.1184844970702	-1053.461791992188	1170.471557617188	-19.58694267272962	-1091.234497070313	1155.545166015625	62.8190231323241	-867.5834960937502	966.4917602539065	75.20464324951163	-902.8862915039065	938.2943115234377	3.524074316024671	-804.5330810546877	872.799987792969	93.56864166259757	-879.2044067382815	846.2374267578127	14.42713546752919	-1016.6767578125	1537.005981445313	461.0534362792969	-1071.070190429688	1174.734619140625	556.32958984375	-1115.782348632813	1155.446655273438	469.8999938964844	-970.7017211914066	908.2709960937502	495.2344970703125	-1014.248168945313	898.167419433594	565.3633422851562	-924.4594726562503	799.3465576171877	506.1029357910156	-1025.968627929688	800.2089843750002	556.6390380859375	
27	0.26	-939.1108398437502	1085.285766601563	131.1388244628905	-1137.473388671875	1094.668579101563	253.6770782470702	-1132.161254882813	1099.747924804688	321.5062255859374	-914.5261230468752	1102.213989257813	399.003173828125	-1010.237365722656	958.6160888671877	80.29861450195301	-992.1636962890627	533.8489990234376	94.44545745849598	-965.419372558594	527.5652465820314	225.4156951904296	-1040.224731445313	485.6092834472657	92.04329681396473	-1004.581420898438	432.8136291503907	149.0622253417968	-1361.109741210938	227.9505615234376	131.0128326416014	-1327.76171875	220.5861816406251	221.9151611328124	-1420.914916992188	238.5836639404297	189.0842437744139	-1311.45703125	61.04542922973634	217.5877532958983	-1304.713134765625	67.91997528076173	161.3655700683592	-1335.995239257813	88.02495574951173	116.6729736328124	-973.6163330078128	974.9751586914065	466.9159851074219	-898.976257324219	545.2197875976564	389.7635498046875	-910.2368164062502	553.2297973632814	260.1262207031249	-920.3147583007815	476.1960449218751	395.0879211425781	-858.493591308594	473.4219360351564	321.7575073242187	-910.2655029296877	64.46112060546876	337.0986022949218	-874.2348632812502	88.69105529785158	246.8917694091796	-956.3210449218752	21.7503662109375	273.8065795898437	-730.2266235351564	21.98207092285157	270.3238525390624	-739.2123413085939	39.33395385742188	327.1457519531249	-785.581726074219	27.44361305236817	373.0517272949218	-1108.672485351563	1624.864990234375	265.4476013183593	-1135.64306640625	1261.3720703125	274.1127014160156	-920.5455322265627	1355.824584960938	259.1948852539062	-979.7781982421877	1530.286865234375	257.7146911621093	-1027.98583984375	1558.31396484375	75.82015991210926	-1044.433227539063	1171.345825195313	-18.19156265258802	-1082.278686523438	1156.533203125	64.14331817626942	-861.5888671875002	964.0109863281252	74.72457885742179	-897.350524902344	936.9542236328127	2.782830238342176	-800.0010986328127	869.201599121094	92.34356689453116	-875.1762695312502	844.3449707031252	12.84039211273183	-1005.112182617188	1538.530517578125	461.7271118164062	-1058.777221679688	1176.594482421875	558.71044921875	-1104.323974609375	1156.845703125	472.6672973632812	-957.7342529296878	910.5938720703127	496.7360534667969	-1000.659912109375	900.1843872070315	567.1365966796875	-910.3066406250003	802.260192871094	507.3854370117188	-1011.480285644532	802.056091308594	558.3117065429688	
28	0.27	-929.047546386719	1086.980712890625	132.177993774414	-1127.680419921875	1095.839599609375	254.4901885986327	-1122.420166015625	1100.990112304688	322.4526367187499	-904.873474121094	1102.706787109375	400.0580444335938	-998.4034423828127	960.300964355469	81.08475494384754	-970.6363525390627	536.2738647460939	94.99447631835928	-944.7012329101565	530.3658447265626	226.3623046874999	-1018.038452148438	487.8057250976564	92.39819335937489	-982.484802246094	435.2208862304689	149.6220703124999	-1338.815063476563	229.698959350586	130.4098663330077	-1305.121215820313	222.0670013427735	221.3641510009764	-1398.971557617188	238.832748413086	188.6141510009764	-1285.763061523438	63.12617111206056	214.8214721679686	-1279.428100585938	70.78260803222658	158.693161010742	-1311.419067382813	90.73025512695314	114.5430221557616	-964.6970214843753	975.5284423828127	467.669921875	-894.9075317382815	545.0935058593751	390.1115417480469	-906.0061035156252	553.1821899414064	260.5875854492187	-917.0285644531252	476.1775817871095	395.260498046875	-854.9331054687502	473.006317138672	322.1136169433593	-910.0913085937502	64.54502868652345	336.8411560058593	-873.969665527344	88.4723587036133	246.5526428222656	-956.363464355469	21.661376953125	273.7089843749999	-730.1461181640626	21.55479240417481	270.1412963867187	-738.9087524414064	39.09917449951173	327.0974731445312	-785.4277954101565	27.36054039001466	373.0106201171874	-1098.048095703125	1626.298706054688	266.3445129394531	-1125.349975585938	1262.914794921875	275.6297302246093	-910.4584960937502	1356.841796875	259.8099975585937	-969.2971801757815	1531.485473632813	258.2984619140624	-1018.183227539063	1559.193969726563	76.46578979492176	-1035.5341796875	1172.177368164063	-16.75620841979994	-1073.350341796875	1157.469482421875	65.52783966064442	-855.680114746094	961.5867309570315	74.13421630859366	-891.986022949219	935.651306152344	2.00857186317433	-795.425231933594	865.770202636719	90.87412261962882	-871.2644042968752	842.550231933594	11.20542526245107	-993.727478027344	1540.017944335938	462.3479614257812	-1046.382202148438	1178.424072265625	561.0332641601562	-1092.86865234375	1158.172241210938	475.3804931640625	-944.7435302734378	912.8687133789065	498.1960754394531	-986.9993896484378	902.1877441406252	568.915771484375	-896.1304321289066	805.1408691406252	508.6552429199219	-996.8870239257816	803.8884887695315	560.0685424804688	
